<svg width="111" height="117" viewBox="0 0 111 117" fill="none" xmlns="http://www.w3.org/2000/svg">
<g clip-path="url(#clip0_50_5)">
<path d="M110.967 0H0.0325195C0.0145595 0 0 0.0153465 0 0.0342773V116.966C0 116.985 0.0145595 117 0.0325195 117H110.967C110.985 117 111 116.985 111 116.966V0.0342773C111 0.0153465 110.985 0 110.967 0Z" fill="#19535F"/>
<path d="M72.627 114.029C75.6621 114.029 75.2285 117.914 75.2285 117.914H35.7715C35.7715 117.914 35.3379 114.029 38.3731 114.029C41.1914 114.029 41.8418 112.658 41.8418 111.287L41.625 99.8613C26.2324 103.518 22.9805 93.4629 22.9805 93.4629C20.3789 86.6074 16.9102 85.0078 16.9102 85.0078C11.707 81.3515 17.127 81.3515 17.127 81.3515C22.7637 81.8086 25.7988 87.2929 25.7988 87.2929C30.5684 96.205 38.5898 93.6914 41.8418 92.3203C42.2754 88.4355 43.793 85.9218 45.3106 84.3222C32.9531 82.9511 20.1621 77.9238 20.1621 55.5293C20.1621 49.1308 22.3301 43.875 25.7988 39.7617C25.1484 38.3906 23.4141 32.4492 26.4492 24.4511C26.4492 24.4511 31.002 22.8515 41.625 30.3925C50.7305 27.6504 60.2695 27.6504 69.375 30.3925C79.9981 22.8515 84.5508 24.4511 84.5508 24.4511C87.586 32.4492 85.8516 38.3906 85.2012 39.7617C88.6699 43.875 90.8379 49.1308 90.8379 55.5293C90.8379 77.9238 77.8301 82.9511 65.4727 84.3222C67.6406 86.1504 69.375 89.8066 69.375 95.291L69.1582 111.287C69.1582 112.658 69.8086 114.029 72.627 114.029Z" fill="#D8C9AA"/>
</g>
<defs>
<clipPath id="clip0_50_5">
<rect width="111" height="117" fill="white"/>
</clipPath>
</defs>
</svg>
