<svg width="199" height="35" viewBox="0 0 199 35" fill="none" xmlns="http://www.w3.org/2000/svg">
<path d="M8.224 33.952C7.904 34.048 7.456 34.128 6.88 34.192C6.304 34.288 5.664 34.336 4.96 34.336C3.52 34.336 2.48 34.112 1.84 33.664C1.232 33.184 0.928 32.272 0.928 30.928V11.2C1.248 11.104 1.696 11.008 2.272 10.912C2.848 10.816 3.488 10.768 4.192 10.768C5.632 10.768 6.656 11.008 7.264 11.488C7.904 11.968 8.224 12.88 8.224 14.224V33.952ZM0.496 4.288C0.496 3.2 0.864 2.272 1.6 1.504C2.368 0.735998 3.36 0.351998 4.576 0.351998C5.792 0.351998 6.768 0.735998 7.504 1.504C8.272 2.272 8.656 3.2 8.656 4.288C8.656 5.408 8.272 6.352 7.504 7.12C6.768 7.888 5.792 8.272 4.576 8.272C3.36 8.272 2.368 7.888 1.6 7.12C0.864 6.352 0.496 5.408 0.496 4.288ZM32.7719 27.232C32.7719 29.6 31.8919 31.456 30.1319 32.8C28.3719 34.112 25.7799 34.768 22.3559 34.768C21.0119 34.768 19.7799 34.672 18.6599 34.48C17.5719 34.288 16.6279 34 15.8279 33.616C15.0279 33.232 14.4039 32.752 13.9559 32.176C13.5079 31.6 13.2839 30.928 13.2839 30.16C13.2839 29.456 13.4279 28.864 13.7159 28.384C14.0039 27.872 14.3719 27.456 14.8199 27.136C15.7479 27.68 16.8039 28.16 17.9879 28.576C19.1719 28.992 20.5479 29.2 22.1159 29.2C24.3879 29.2 25.5239 28.56 25.5239 27.28C25.5239 26.736 25.3159 26.32 24.8999 26.032C24.5159 25.744 23.8439 25.488 22.8839 25.264L20.9639 24.832C18.3399 24.288 16.3879 23.456 15.1079 22.336C13.8279 21.184 13.1879 19.584 13.1879 17.536C13.1879 15.264 14.0999 13.472 15.9239 12.16C17.7799 10.816 20.2599 10.144 23.3639 10.144C24.5159 10.144 25.6039 10.24 26.6279 10.432C27.6519 10.592 28.5319 10.848 29.2679 11.2C30.0039 11.552 30.5799 12 30.9959 12.544C31.4439 13.056 31.6679 13.664 31.6679 14.368C31.6679 15.008 31.5399 15.584 31.2839 16.096C31.0279 16.576 30.6919 16.976 30.2759 17.296C30.0199 17.136 29.6359 16.96 29.1239 16.768C28.6439 16.576 28.1159 16.4 27.5399 16.24C26.9639 16.08 26.3559 15.952 25.7159 15.856C25.0759 15.76 24.4839 15.712 23.9399 15.712C22.8199 15.712 21.9399 15.872 21.2999 16.192C20.6919 16.48 20.3879 16.928 20.3879 17.536C20.3879 17.984 20.5639 18.336 20.9159 18.592C21.2679 18.848 21.9079 19.088 22.8359 19.312L24.6599 19.744C27.5719 20.384 29.6519 21.312 30.8999 22.528C32.1479 23.744 32.7719 25.312 32.7719 27.232ZM47.1318 29.344C47.8358 29.344 48.5238 29.28 49.1958 29.152C49.8998 28.992 50.4278 28.8 50.7798 28.576V24.16L46.8438 24.496C45.8198 24.592 44.9878 24.832 44.3478 25.216C43.7398 25.568 43.4358 26.112 43.4358 26.848C43.4358 27.616 43.7238 28.224 44.2998 28.672C44.8758 29.12 45.8198 29.344 47.1318 29.344ZM46.8438 10.192C48.5078 10.192 50.0118 10.368 51.3558 10.72C52.7318 11.04 53.8998 11.552 54.8598 12.256C55.8198 12.96 56.5558 13.856 57.0678 14.944C57.6118 16.032 57.8838 17.312 57.8838 18.784V29.632C57.8838 30.464 57.6598 31.136 57.2118 31.648C56.7958 32.128 56.2838 32.544 55.6758 32.896C54.6838 33.504 53.4678 33.968 52.0278 34.288C50.5878 34.608 48.9558 34.768 47.1318 34.768C43.8358 34.768 41.2118 34.144 39.2598 32.896C37.3078 31.616 36.3318 29.68 36.3318 27.088C36.3318 24.88 36.9878 23.2 38.2998 22.048C39.6118 20.896 41.6278 20.176 44.3478 19.888L50.7318 19.216V18.688C50.7318 17.664 50.3158 16.912 49.4838 16.432C48.6518 15.952 47.4518 15.712 45.8838 15.712C44.6678 15.712 43.4678 15.856 42.2838 16.144C41.1318 16.432 40.0918 16.768 39.1638 17.152C38.7798 16.896 38.4438 16.512 38.1558 16C37.8998 15.456 37.7718 14.88 37.7718 14.272C37.7718 12.864 38.5078 11.856 39.9798 11.248C40.9078 10.896 41.9798 10.64 43.1958 10.48C44.4438 10.288 45.6598 10.192 46.8438 10.192ZM72.8193 29.344C73.5233 29.344 74.2113 29.28 74.8833 29.152C75.5873 28.992 76.1153 28.8 76.4673 28.576V24.16L72.5312 24.496C71.5073 24.592 70.6753 24.832 70.0353 25.216C69.4273 25.568 69.1233 26.112 69.1233 26.848C69.1233 27.616 69.4113 28.224 69.9873 28.672C70.5633 29.12 71.5073 29.344 72.8193 29.344ZM72.5312 10.192C74.1953 10.192 75.6993 10.368 77.0433 10.72C78.4193 11.04 79.5873 11.552 80.5473 12.256C81.5073 12.96 82.2433 13.856 82.7553 14.944C83.2993 16.032 83.5713 17.312 83.5713 18.784V29.632C83.5713 30.464 83.3473 31.136 82.8993 31.648C82.4833 32.128 81.9713 32.544 81.3633 32.896C80.3713 33.504 79.1553 33.968 77.7153 34.288C76.2753 34.608 74.6433 34.768 72.8193 34.768C69.5233 34.768 66.8993 34.144 64.9473 32.896C62.9953 31.616 62.0193 29.68 62.0193 27.088C62.0193 24.88 62.6753 23.2 63.9873 22.048C65.2993 20.896 67.3153 20.176 70.0353 19.888L76.4193 19.216V18.688C76.4193 17.664 76.0033 16.912 75.1713 16.432C74.3393 15.952 73.1393 15.712 71.5713 15.712C70.3553 15.712 69.1553 15.856 67.9713 16.144C66.8193 16.432 65.7793 16.768 64.8513 17.152C64.4673 16.896 64.1313 16.512 63.8433 16C63.5873 15.456 63.4593 14.88 63.4593 14.272C63.4593 12.864 64.1953 11.856 65.6673 11.248C66.5953 10.896 67.6673 10.64 68.8833 10.48C70.1313 10.288 71.3473 10.192 72.5312 10.192ZM101.531 16C99.8028 16 98.3308 16.56 97.1148 17.68C95.8988 18.768 95.2908 20.384 95.2908 22.528C95.2908 24.672 95.8668 26.272 97.0188 27.328C98.2028 28.384 99.6908 28.912 101.483 28.912C102.507 28.912 103.403 28.784 104.171 28.528C104.971 28.24 105.643 27.952 106.187 27.664C106.731 28.08 107.147 28.528 107.435 29.008C107.755 29.456 107.915 30.016 107.915 30.688C107.915 31.904 107.275 32.88 105.995 33.616C104.715 34.352 102.939 34.72 100.667 34.72C98.7468 34.72 96.9868 34.464 95.3868 33.952C93.8188 33.44 92.4748 32.672 91.3548 31.648C90.2348 30.624 89.3708 29.36 88.7628 27.856C88.1548 26.32 87.8508 24.544 87.8508 22.528C87.8508 20.448 88.1868 18.64 88.8588 17.104C89.5308 15.568 90.4428 14.288 91.5948 13.264C92.7468 12.24 94.0908 11.472 95.6268 10.96C97.1628 10.448 98.7788 10.192 100.475 10.192C102.683 10.192 104.411 10.592 105.659 11.392C106.939 12.192 107.579 13.2 107.579 14.416C107.579 14.992 107.435 15.52 107.147 16C106.891 16.48 106.571 16.896 106.187 17.248C105.611 16.928 104.923 16.64 104.123 16.384C103.355 16.128 102.491 16 101.531 16ZM111.133 30.448C111.133 29.232 111.501 28.208 112.237 27.376C113.005 26.544 114.061 26.128 115.405 26.128C116.717 26.128 117.757 26.544 118.525 27.376C119.293 28.208 119.677 29.232 119.677 30.448C119.677 31.664 119.293 32.688 118.525 33.52C117.757 34.352 116.717 34.768 115.405 34.768C114.061 34.768 113.005 34.352 112.237 33.52C111.501 32.688 111.133 31.664 111.133 30.448ZM133.931 10.192C134.667 10.192 135.355 10.256 135.995 10.384C136.667 10.48 137.275 10.624 137.819 10.816V2.752C138.171 2.656 138.635 2.56 139.211 2.464C139.787 2.368 140.427 2.32 141.131 2.32C142.571 2.32 143.595 2.56 144.203 3.04C144.843 3.52 145.163 4.432 145.163 5.776V29.152C145.163 29.92 145.003 30.576 144.683 31.12C144.363 31.632 143.851 32.112 143.147 32.56C142.251 33.104 141.099 33.6 139.691 34.048C138.283 34.496 136.667 34.72 134.843 34.72C130.811 34.72 127.627 33.712 125.291 31.696C122.987 29.648 121.835 26.592 121.835 22.528C121.835 20.416 122.139 18.592 122.747 17.056C123.387 15.52 124.251 14.24 125.339 13.216C126.427 12.192 127.707 11.44 129.179 10.96C130.651 10.448 132.235 10.192 133.931 10.192ZM137.867 16.672C137.451 16.48 136.987 16.32 136.475 16.192C135.995 16.032 135.483 15.952 134.939 15.952C133.211 15.952 131.835 16.48 130.811 17.536C129.787 18.592 129.275 20.272 129.275 22.576C129.275 24.784 129.755 26.4 130.715 27.424C131.707 28.416 133.067 28.912 134.795 28.912C135.467 28.912 136.059 28.848 136.571 28.72C137.115 28.56 137.547 28.384 137.867 28.192V16.672ZM156.928 25.504C157.376 26.848 158.16 27.808 159.28 28.384C160.4 28.928 161.696 29.2 163.168 29.2C164.512 29.2 165.776 29.024 166.96 28.672C168.144 28.288 169.104 27.872 169.84 27.424C170.32 27.744 170.72 28.16 171.04 28.672C171.36 29.184 171.52 29.744 171.52 30.352C171.52 31.088 171.296 31.728 170.848 32.272C170.4 32.816 169.776 33.28 168.976 33.664C168.208 34.016 167.28 34.272 166.192 34.432C165.136 34.624 163.968 34.72 162.688 34.72C160.8 34.72 159.056 34.464 157.456 33.952C155.856 33.408 154.48 32.624 153.328 31.6C152.176 30.544 151.264 29.232 150.592 27.664C149.952 26.096 149.632 24.256 149.632 22.144C149.632 20.096 149.952 18.32 150.592 16.816C151.264 15.312 152.144 14.064 153.232 13.072C154.352 12.08 155.616 11.36 157.024 10.912C158.464 10.432 159.936 10.192 161.44 10.192C163.072 10.192 164.56 10.448 165.904 10.96C167.28 11.44 168.448 12.128 169.408 13.024C170.4 13.92 171.168 14.992 171.712 16.24C172.256 17.488 172.528 18.848 172.528 20.32C172.528 21.344 172.256 22.112 171.712 22.624C171.168 23.136 170.4 23.472 169.408 23.632L156.928 25.504ZM161.488 15.616C160.112 15.616 158.96 16.048 158.032 16.912C157.136 17.744 156.608 18.96 156.448 20.56L165.616 19.072C165.552 18.24 165.184 17.456 164.512 16.72C163.84 15.984 162.832 15.616 161.488 15.616ZM194.755 10.432C195.747 10.432 196.579 10.656 197.251 11.104C197.955 11.552 198.307 12.304 198.307 13.36C198.307 13.84 198.179 14.56 197.923 15.52C197.699 16.48 197.395 17.568 197.011 18.784C196.627 20 196.179 21.312 195.667 22.72C195.187 24.096 194.675 25.456 194.131 26.8C193.619 28.112 193.107 29.344 192.595 30.496C192.083 31.648 191.619 32.608 191.203 33.376C190.819 33.664 190.227 33.904 189.427 34.096C188.659 34.32 187.795 34.432 186.835 34.432C185.715 34.432 184.755 34.288 183.955 34C183.155 33.712 182.579 33.248 182.227 32.608C181.939 32.064 181.587 31.312 181.171 30.352C180.787 29.392 180.355 28.32 179.875 27.136C179.427 25.92 178.963 24.64 178.483 23.296C178.003 21.92 177.539 20.56 177.091 19.216C176.643 17.84 176.227 16.544 175.843 15.328C175.459 14.08 175.155 12.96 174.931 11.968C175.315 11.552 175.843 11.2 176.515 10.912C177.219 10.592 177.971 10.432 178.771 10.432C179.795 10.432 180.627 10.656 181.267 11.104C181.907 11.52 182.387 12.304 182.707 13.456L184.819 21.04C185.203 22.384 185.587 23.712 185.971 25.024C186.355 26.304 186.643 27.312 186.835 28.048H187.075C187.811 25.552 188.547 22.832 189.283 19.888C190.019 16.944 190.707 14.064 191.347 11.248C192.339 10.704 193.475 10.432 194.755 10.432Z" fill="#19535F"/>
</svg>
