<svg width="108" height="35" viewBox="0 0 108 35" fill="none" xmlns="http://www.w3.org/2000/svg">
<path d="M8.224 33.952C7.904 34.048 7.456 34.128 6.88 34.192C6.304 34.288 5.664 34.336 4.96 34.336C3.52 34.336 2.48 34.112 1.84 33.664C1.232 33.184 0.928 32.272 0.928 30.928V11.2C1.248 11.104 1.696 11.008 2.272 10.912C2.848 10.816 3.488 10.768 4.192 10.768C5.632 10.768 6.656 11.008 7.264 11.488C7.904 11.968 8.224 12.88 8.224 14.224V33.952ZM0.496 4.288C0.496 3.2 0.864 2.272 1.6 1.504C2.368 0.735998 3.36 0.351998 4.576 0.351998C5.792 0.351998 6.768 0.735998 7.504 1.504C8.272 2.272 8.656 3.2 8.656 4.288C8.656 5.408 8.272 6.352 7.504 7.12C6.768 7.888 5.792 8.272 4.576 8.272C3.36 8.272 2.368 7.888 1.6 7.12C0.864 6.352 0.496 5.408 0.496 4.288ZM32.7719 27.232C32.7719 29.6 31.8919 31.456 30.1319 32.8C28.3719 34.112 25.7799 34.768 22.3559 34.768C21.0119 34.768 19.7799 34.672 18.6599 34.48C17.5719 34.288 16.6279 34 15.8279 33.616C15.0279 33.232 14.4039 32.752 13.9559 32.176C13.5079 31.6 13.2839 30.928 13.2839 30.16C13.2839 29.456 13.4279 28.864 13.7159 28.384C14.0039 27.872 14.3719 27.456 14.8199 27.136C15.7479 27.68 16.8039 28.16 17.9879 28.576C19.1719 28.992 20.5479 29.2 22.1159 29.2C24.3879 29.2 25.5239 28.56 25.5239 27.28C25.5239 26.736 25.3159 26.32 24.8999 26.032C24.5159 25.744 23.8439 25.488 22.8839 25.264L20.9639 24.832C18.3399 24.288 16.3879 23.456 15.1079 22.336C13.8279 21.184 13.1879 19.584 13.1879 17.536C13.1879 15.264 14.0999 13.472 15.9239 12.16C17.7799 10.816 20.2599 10.144 23.3639 10.144C24.5159 10.144 25.6039 10.24 26.6279 10.432C27.6519 10.592 28.5319 10.848 29.2679 11.2C30.0039 11.552 30.5799 12 30.9959 12.544C31.4439 13.056 31.6679 13.664 31.6679 14.368C31.6679 15.008 31.5399 15.584 31.2839 16.096C31.0279 16.576 30.6919 16.976 30.2759 17.296C30.0199 17.136 29.6359 16.96 29.1239 16.768C28.6439 16.576 28.1159 16.4 27.5399 16.24C26.9639 16.08 26.3559 15.952 25.7159 15.856C25.0759 15.76 24.4839 15.712 23.9399 15.712C22.8199 15.712 21.9399 15.872 21.2999 16.192C20.6919 16.48 20.3879 16.928 20.3879 17.536C20.3879 17.984 20.5639 18.336 20.9159 18.592C21.2679 18.848 21.9079 19.088 22.8359 19.312L24.6599 19.744C27.5719 20.384 29.6519 21.312 30.8999 22.528C32.1479 23.744 32.7719 25.312 32.7719 27.232ZM47.1318 29.344C47.8358 29.344 48.5238 29.28 49.1958 29.152C49.8998 28.992 50.4278 28.8 50.7798 28.576V24.16L46.8438 24.496C45.8198 24.592 44.9878 24.832 44.3478 25.216C43.7398 25.568 43.4358 26.112 43.4358 26.848C43.4358 27.616 43.7238 28.224 44.2998 28.672C44.8758 29.12 45.8198 29.344 47.1318 29.344ZM46.8438 10.192C48.5078 10.192 50.0118 10.368 51.3558 10.72C52.7318 11.04 53.8998 11.552 54.8598 12.256C55.8198 12.96 56.5558 13.856 57.0678 14.944C57.6118 16.032 57.8838 17.312 57.8838 18.784V29.632C57.8838 30.464 57.6598 31.136 57.2118 31.648C56.7958 32.128 56.2838 32.544 55.6758 32.896C54.6838 33.504 53.4678 33.968 52.0278 34.288C50.5878 34.608 48.9558 34.768 47.1318 34.768C43.8358 34.768 41.2118 34.144 39.2598 32.896C37.3078 31.616 36.3318 29.68 36.3318 27.088C36.3318 24.88 36.9878 23.2 38.2998 22.048C39.6118 20.896 41.6278 20.176 44.3478 19.888L50.7318 19.216V18.688C50.7318 17.664 50.3158 16.912 49.4838 16.432C48.6518 15.952 47.4518 15.712 45.8838 15.712C44.6678 15.712 43.4678 15.856 42.2838 16.144C41.1318 16.432 40.0918 16.768 39.1638 17.152C38.7798 16.896 38.4438 16.512 38.1558 16C37.8998 15.456 37.7718 14.88 37.7718 14.272C37.7718 12.864 38.5078 11.856 39.9798 11.248C40.9078 10.896 41.9798 10.64 43.1958 10.48C44.4438 10.288 45.6598 10.192 46.8438 10.192ZM72.8193 29.344C73.5233 29.344 74.2113 29.28 74.8833 29.152C75.5873 28.992 76.1153 28.8 76.4673 28.576V24.16L72.5312 24.496C71.5073 24.592 70.6753 24.832 70.0353 25.216C69.4273 25.568 69.1233 26.112 69.1233 26.848C69.1233 27.616 69.4113 28.224 69.9873 28.672C70.5633 29.12 71.5073 29.344 72.8193 29.344ZM72.5312 10.192C74.1953 10.192 75.6993 10.368 77.0433 10.72C78.4193 11.04 79.5873 11.552 80.5473 12.256C81.5073 12.96 82.2433 13.856 82.7553 14.944C83.2993 16.032 83.5713 17.312 83.5713 18.784V29.632C83.5713 30.464 83.3473 31.136 82.8993 31.648C82.4833 32.128 81.9713 32.544 81.3633 32.896C80.3713 33.504 79.1553 33.968 77.7153 34.288C76.2753 34.608 74.6433 34.768 72.8193 34.768C69.5233 34.768 66.8993 34.144 64.9473 32.896C62.9953 31.616 62.0193 29.68 62.0193 27.088C62.0193 24.88 62.6753 23.2 63.9873 22.048C65.2993 20.896 67.3153 20.176 70.0353 19.888L76.4193 19.216V18.688C76.4193 17.664 76.0033 16.912 75.1713 16.432C74.3393 15.952 73.1393 15.712 71.5713 15.712C70.3553 15.712 69.1553 15.856 67.9713 16.144C66.8193 16.432 65.7793 16.768 64.8513 17.152C64.4673 16.896 64.1313 16.512 63.8433 16C63.5873 15.456 63.4593 14.88 63.4593 14.272C63.4593 12.864 64.1953 11.856 65.6673 11.248C66.5953 10.896 67.6673 10.64 68.8833 10.48C70.1313 10.288 71.3473 10.192 72.5312 10.192ZM101.531 16C99.8028 16 98.3308 16.56 97.1148 17.68C95.8988 18.768 95.2908 20.384 95.2908 22.528C95.2908 24.672 95.8668 26.272 97.0188 27.328C98.2028 28.384 99.6908 28.912 101.483 28.912C102.507 28.912 103.403 28.784 104.171 28.528C104.971 28.24 105.643 27.952 106.187 27.664C106.731 28.08 107.147 28.528 107.435 29.008C107.755 29.456 107.915 30.016 107.915 30.688C107.915 31.904 107.275 32.88 105.995 33.616C104.715 34.352 102.939 34.72 100.667 34.72C98.7468 34.72 96.9868 34.464 95.3868 33.952C93.8188 33.44 92.4748 32.672 91.3548 31.648C90.2348 30.624 89.3708 29.36 88.7628 27.856C88.1548 26.32 87.8508 24.544 87.8508 22.528C87.8508 20.448 88.1868 18.64 88.8588 17.104C89.5308 15.568 90.4428 14.288 91.5948 13.264C92.7468 12.24 94.0908 11.472 95.6268 10.96C97.1628 10.448 98.7788 10.192 100.475 10.192C102.683 10.192 104.411 10.592 105.659 11.392C106.939 12.192 107.579 13.2 107.579 14.416C107.579 14.992 107.435 15.52 107.147 16C106.891 16.48 106.571 16.896 106.187 17.248C105.611 16.928 104.923 16.64 104.123 16.384C103.355 16.128 102.491 16 101.531 16Z" fill="#19535F"/>
</svg>
